PathFileType	4	(X/Y/Z)	Patient4_TMGait_0pt2_02_left_17.trc.trc
DataRate	CameraRate	NumFrames	NumMarkers	Units	OrigDataRate	OrigDataStartFrame	OrigNumFrames
45.454545454545	45.454545454545	6	33	mm	45.454545454545	1	       141
Frame#	Time	R.Midfoot.Superior			Sacral			L.Shoulder			Chest			R.Shoulder			Neck			R.ASIS			L.ASIS			R.Thigh.Superior			R.Thigh.Lateral			R.Thigh.Inferior			R.Patella			L.Thigh.Superior			L.Thigh.Lateral			L.Thigh.Inferior			L.Patella			L.Shank.Superior			L.Shank.Lateral			L.Shank.Inferior			R.Shank.Superior			R.Shank.Lateral			R.Shank.Inferior			R.Heel			R.Midfoot.Lateral			R.Toe			L.Heel			L.Midfoot.Lateral			L.Midfoot.Superior			L.Toe			L.Elbow			L.Wrist			R.Elbow			R.Wrist			
		X1	Y1	Z1	X2	Y2	Z2	X3	Y3	Z3	X4	Y4	Z4	X5	Y5	Z5	X6	Y6	Z6	X7	Y7	Z7	X8	Y8	Z8	X9	Y9	Z9	X10	Y10	Z10	X11	Y11	Z11	X12	Y12	Z12	X13	Y13	Z13	X14	Y14	Z14	X15	Y15	Z15	X16	Y16	Z16	X17	Y17	Z17	X18	Y18	Z18	X19	Y19	Z19	X20	Y20	Z20	X21	Y21	Z21	X22	Y22	Z22	X23	Y23	Z23	X24	Y24	Z24	X25	Y25	Z25	X26	Y26	Z26	X27	Y27	Z27	X28	Y28	Z28	X29	Y29	Z29	X30	Y30	Z30	X31	Y31	Z31	X32	Y32	Z32	X33	Y33	Z33	

1	38.780000000000	1112.485009054438	96.179917225141	608.265337144816	872.732370693484	986.828410021765	517.306864264171	1047.218208101910	1423.151487737182	339.360734363222	1132.165489888538	1361.242681043108	512.103415745492	1026.822163465612	1433.247539408746	673.339260377145	1006.096031673009	1486.011665952748	492.786386117496	1102.526410950403	938.257321291227	644.242502179036	1094.806016501882	954.582311474870	369.209953402327	1162.489735818971	741.316548775239	606.843223231672	1092.878899504468	623.197794557494	665.972976468855	1174.105204491506	578.039323907827	585.293406806540	1182.323846960666	484.207806448024	592.687326249526	1151.734922833222	743.039257798171	389.873825949533	1078.449833461898	624.037104056946	313.949507072052	1170.778521293383	545.887380936928	371.719326439910	1168.366417941419	460.307170664465	362.437878522173	1102.635506973292	400.869174748734	353.067749800854	964.132336570423	351.864761321159	304.245030825484	958.579754429657	220.001379937727	353.138471394166	1142.442527549814	394.943235044914	598.864307058279	1061.118389155909	298.712376450118	661.010181684385	1091.154337766182	200.666879705839	598.251817525238	942.654425135042	43.514071468622	569.993810765692	1024.250976220380	37.024453392337	646.506428030825	1232.485377227707	45.721203673012	641.474879438332	772.267913347312	138.726297287660	390.746920639758	833.858771619552	97.049362913455	312.006568722132	936.802380512500	117.499426345895	331.445080023164	1026.129910085282	34.054216854401	308.207309885560	1132.864168864030	1086.903924928115	206.937746728234	1354.321202930256	940.309891846163	213.962307358864	965.351780967073	1091.396012091966	803.313890831962	1043.195638185725	837.686183065063	818.031912264689	
2	38.802000000000	1108.447985481727	96.263914057410	608.489733199508	871.487726251521	984.748233222293	524.680952200258	1042.614739944517	1420.413770685664	342.265281738819	1131.613187455968	1358.828513820912	512.988002358154	1030.709405530693	1431.414389931950	676.634942042188	1005.923349689165	1484.139935888491	496.363774112490	1103.692510685417	936.736637697985	647.102459421556	1090.709608602461	952.900038725258	372.213998036047	1163.368767875017	740.010141125772	608.919310915615	1094.699022733539	621.451009590157	668.116503461975	1175.117916533583	576.823061814271	586.391429623012	1183.215808362520	482.515439576037	593.271974783445	1155.747414193584	747.856805144154	392.953545047703	1088.743555278043	626.874871071792	316.205636832217	1184.477919950628	552.510655635480	373.958353873928	1185.115601986850	465.881362843245	364.244921127189	1118.253332359652	405.249750170625	354.845075477692	978.139024332669	360.374428935860	306.120112384685	969.150543368002	228.464115916648	354.552010155023	1142.383302981419	393.325208914339	599.421968806230	1060.298916136727	297.701717130408	661.649654154333	1088.680390109875	199.673049964054	598.338262676223	938.330334824071	43.572800759517	570.099838035158	1019.937592681631	37.046627157479	646.614008164921	1228.238153410430	45.352692731491	641.573399735411	781.089405183985	156.953232724788	392.822573363501	839.344226941988	111.961544041206	313.433401328679	943.246455538066	125.098893059801	332.315617835156	1025.207927256951	32.678829403563	307.650525055558	1112.385072412144	1078.473647292014	215.545736785497	1310.521782725933	910.952725098700	221.824123734061	987.372740620353	1088.914408659512	810.170087269221	1084.248441429604	844.355847605825	823.210657289725	
3	38.824000000000	1104.218074760547	96.324023218533	608.671544324325	870.252882135424	982.739446527524	532.079784380228	1037.868513381976	1417.720949835461	345.203139609949	1131.023884462241	1356.474090876525	513.814419491912	1034.703546263355	1429.656562360511	679.905148203913	1005.736098013903	1482.328303106730	499.951751282143	1104.816392219201	935.216267151435	649.937671997761	1086.566131924608	951.318866307608	375.240323239423	1164.158165329746	738.670187354759	610.934810096773	1096.418179428586	619.695866306841	670.195004799559	1175.980789060039	575.581874588637	587.387183186329	1183.932068336154	480.803697216946	593.737934751619	1159.556063497675	752.824490913778	396.127119821035	1098.850562238573	629.908409264224	318.562976944912	1197.919093563801	559.371434997202	376.331012416546	1201.648509381251	471.743520341960	366.147577496971	1133.798871876980	409.857709835285	356.678380024500	992.079307794631	368.661959194204	308.286862033244	980.228809293714	236.553152012149	356.075305746543	1142.139378014407	391.695880727791	599.895703146564	1059.303896916750	296.691946256736	662.236239004768	1086.033014308649	198.681937437943	598.391246892351	933.826644433941	43.627268758427	570.208975809803	1015.452698312847	37.070247194407	646.728579358566	1223.814184708190	45.000586045299	641.665733627264	790.684081726885	173.453954572947	395.261437441665	845.797120968753	125.798234218382	315.006886322362	950.647609420951	132.448140952991	333.169470387135	1026.041275529474	31.832136575295	306.622711193134	1090.921676489915	1070.267631332922	224.413953611387	1264.191371007310	882.311107182434	230.245554339589	1010.478372488297	1086.921312934890	816.916926361365	1127.205859839163	852.858123873113	827.812812993016	
4	38.846000000000	1099.867773696558	96.352240003819	608.794055113963	869.082514876859	980.948296464347	539.237164832097	1033.108537009575	1415.235259585761	348.081094266687	1130.418103101377	1354.320571810731	514.517453932449	1038.724806306066	1428.098799887319	683.003643377997	1005.549937782702	1480.697848526547	503.417594915544	1105.843498989162	933.774168174063	652.607993924639	1082.499999501946	949.965328718003	378.164563362654	1164.763657330988	737.350391577848	612.772095343679	1097.884417984321	618.017378814597	672.101904799504	1176.542528906960	574.362568326887	588.207618473049	1184.305768234559	479.148531013962	594.033952068601	1162.886409340162	757.790736438069	399.295657266741	1108.232138784830	633.082379001742	320.964392476504	1210.386877220545	566.257378626308	378.800911621435	1217.151261758232	477.765571385062	368.117764502252	1148.606052551808	414.584086892807	358.516686378471	1005.446551405737	376.186656567041	310.699063123362	991.724500823198	243.717662671272	357.651258390169	1141.590536919816	390.131879660802	600.248730145095	1058.058063502028	295.731311692499	662.738653681288	1083.211886870387	197.741841366373	598.403231847017	929.232896952075	43.674257203636	570.319479654572	1010.886039675799	37.093970247897	646.848404004167	1219.298280578061	44.685063992325	641.745011004624	801.213724779583	186.779745230594	397.992956533652	853.602351818099	137.463198989147	316.648034299633	959.309216926478	139.051205505863	333.937877172800	1029.514162918006	31.661059489279	305.027296286154	1068.847188946786	1062.821534077152	233.281308868561	1216.165300474315	855.959834752427	239.136138588084	1034.249711320262	1085.778667608495	823.210794451258	1171.106790474831	863.828608067039	831.348559062233	
5	38.868000000000	1095.451985793744	96.348590542311	608.854827310465	868.015151314910	979.523169816077	545.948140382137	1028.445463916454	1413.115760029563	350.830387780461	1129.824865524690	1352.499288823694	515.041013283544	1042.731758165706	1426.859992990994	685.810372935051	1005.389204222488	1479.364805347643	506.658231627620	1106.741170826414	932.489863217040	654.991238647868	1078.599117241552	948.954994988245	380.875668638972	1165.087800820091	736.101670240506	614.331926566622	1098.948117728539	616.500684688291	673.763613033982	1176.643864241782	573.209452346581	588.803626246323	1184.158597634511	477.624182150232	594.136286927851	1165.498814313172	762.613524878149	402.367459288714	1116.419916997814	636.330637588787	323.356023634201	1221.260657822100	572.955292501407	381.332065987418	1230.922965159475	483.817796742387	370.128608901247	1162.123896134148	419.313859058245	360.308396192027	1017.877279844093	382.431346134107	313.257122043306	1003.646757710122	249.459542597435	359.191116600287	1140.601992238431	388.708244751099	600.466393556354	1056.472091364685	294.863035482500	663.143379376977	1080.196098970513	196.897753571722	598.375913726234	924.614292791664	43.710618093770	570.431547690079	1006.301605745357	37.115728274256	646.971921068684	1214.750668919761	44.421919863197	641.805508983391	812.932151865815	195.709247315071	400.858333602380	863.215217013366	145.995775460525	318.226744426769	969.602071634367	144.434954176684	334.535327930421	1036.482704031345	32.236400647190	302.831105291044	1046.441200343701	1056.644115257771	241.914998177993	1167.244613861484	833.255709306181	248.413596333926	1058.346544012671	1085.825124489249	828.758330779718	1215.077223421651	877.880382629626	833.393348049089	
6	38.890000000000	1091.008388583730	96.320498075460	608.865197851889	867.072970964731	978.599708844136	552.081434870251	1023.968283063891	1411.505289273058	353.409678980389	1129.280480469014	1351.119482861545	515.342301083518	1046.721176752220	1426.040660356365	688.238541519064	1005.286160724640	1478.429439331251	509.605736032622	1107.501870529961	931.437848849907	656.991061012126	1074.911291380425	948.381155393950	383.281484876499	1165.039477584900	734.968753810257	615.542640633326	1099.474702561328	615.224884098186	675.145723583259	1176.132646547766	572.161864506098	589.156313753232	1183.318004951648	476.298454841619	594.053131582580	1167.207896241243	767.165109257349	405.260364798985	1123.048369811719	639.575707231005	325.683929247694	1230.059004226879	579.259487862043	383.885007815063	1242.424972379943	489.770800188589	372.151912328356	1173.950359049761	423.930408668759	362.003644681443	1029.177406649162	386.952707074284	315.805162087756	1016.083281973017	253.392378748263	360.581167792276	1139.039594115756	387.493317696889	600.559061994367	1054.453561330139	294.122065560345	663.456326943116	1076.950411380091	196.188140295358	598.320739369384	920.011971519365	43.733589237202	570.546921327875	1001.737709529775	37.132821609064	647.097571871037	1210.207544933281	44.221060320895	641.843229233098	826.145277297307	199.412914567488	403.612945282048	875.098720021236	150.691569111625	319.571927040551	981.903082029057	148.202638295399	334.872259324471	1047.642117331312	33.531905059139	300.092016205992	1023.903842856616	1052.179314723027	250.119710756370	1118.215764275982	815.222856654877	257.992056518221	1082.501012314550	1087.339790333552	833.333784182416	1258.327585051578	895.509105275829	833.629735750650	
